<svg xmlns="http://www.w3.org/2000/svg" viewBox="0 0 640 640" xmlns:v="https://vecta.io/nano"><path d="M272 112c0-26.5 21.5-48 48-48s48 21.5 48 48-21.5 48-48 48-48-21.5-48-48zm0 416c0-26.5 21.5-48 48-48s48 21.5 48 48-21.5 48-48 48-48-21.5-48-48zM112 272c26.5 0 48 21.5 48 48s-21.5 48-48 48-48-21.5-48-48 21.5-48 48-48zm368 48c0-26.5 21.5-48 48-48s48 21.5 48 48-21.5 48-48 48-48-21.5-48-48zM139 433.1c18.8-18.8 49.1-18.8 67.9 0s18.8 49.1 0 67.9-49.1 18.8-67.9 0-18.8-49.1 0-67.9zm0-294.1c18.8-18.8 49.1-18.8 67.9 0s18.8 49.1 0 67.9-49.1 18.8-67.9 0-18.8-49.1 0-67.9zm362 294.1c18.8 18.8 18.8 49.1 0 67.9s-49.1 18.8-67.9 0-18.8-49.1 0-67.9 49.1-18.8 67.9 0z"/></svg>